<svg width="2117" height="921" xmlns="http://www.w3.org/2000/svg" xmlns:xlink="http://www.w3.org/1999/xlink" xml:space="preserve" overflow="hidden"><g transform="translate(-536 -802)"><g><path d="M551.712 1314.83C578.491 1281.19 605.267 1246.39 632.046 1213.89 658.825 1181.39 685.6 1148.97 712.379 1119.83 739.158 1090.69 765.933 1062.85 792.712 1039.06 819.491 1015.27 846.267 993.905 873.046 977.082 899.824 960.258 926.6 946.83 953.379 938.119 980.158 929.412 1006.93 924.832 1033.71 924.832 1060.48 924.832 1087.26 929.412 1114.06 938.119 1140.83 946.83 1167.61 960.258 1194.38 977.082 1221.15 993.905 1247.92 1015.27 1274.73 1039.06 1301.5 1062.85 1328.27 1090.69 1355.05 1119.83 1381.82 1148.97 1408.59 1181.39 1435.36 1213.89 1462.17 1246.39 1488.94 1281.19 1515.71 1314.83 1542.48 1348.48 1569.26 1383.27 1596.06 1415.77 1622.83 1448.27 1649.61 1480.69 1676.38 1509.83 1703.15 1538.97 1729.92 1566.81 1756.7 1590.61 1783.5 1614.4 1810.27 1635.76 1837.05 1652.58 1863.82 1669.41 1890.59 1682.83 1917.4 1691.54 1944.17 1700.25 1970.94 1704.83 1997.71 1704.83 2024.48 1704.83 2051.26 1700.25 2078.03 1691.54 2104.84 1682.83 2131.61 1669.41 2158.38 1652.58 2185.15 1635.76 2211.92 1614.4 2238.73 1590.61 2265.5 1566.81 2292.27 1538.97 2319.05 1509.83 2345.82 1480.69 2372.59 1448.27 2399.4 1415.77 2426.17 1383.27 2466.31 1331.66 2479.71 1314.83" stroke="#78AAD6" stroke-width="27.5" stroke-linecap="round" stroke-linejoin="round" stroke-miterlimit="10" stroke-opacity="1" fill="#DCEAF7" fill-rule="evenodd" fill-opacity="1"/><path d="M551.712 1314.83C578.491 1311.66 605.267 1308.07 632.046 1305.33 658.825 1302.59 685.6 1299.96 712.379 1298.38 739.158 1296.79 765.933 1295.83 792.712 1295.83 819.491 1295.83 846.267 1296.79 873.046 1298.38 899.824 1299.96 926.6 1302.59 953.379 1305.33 980.158 1308.07 1006.93 1311.66 1033.71 1314.83 1060.48 1318 1087.26 1321.59 1114.06 1324.33 1140.83 1327.07 1167.61 1329.7 1194.38 1331.29 1221.15 1332.87 1247.92 1333.83 1274.73 1333.83 1301.5 1333.83 1328.27 1332.87 1355.05 1331.29 1381.82 1329.7 1408.59 1327.07 1435.36 1324.33 1462.17 1321.59 1488.94 1318 1515.71 1314.83 1542.48 1311.66 1569.26 1308.07 1596.06 1305.33 1622.83 1302.59 1649.61 1299.96 1676.38 1298.38 1703.15 1296.79 1729.92 1295.83 1756.7 1295.83 1783.5 1295.83 1810.27 1296.79 1837.05 1298.38 1863.82 1299.96 1890.59 1302.59 1917.4 1305.33 1944.17 1308.07 1970.94 1311.66 1997.71 1314.83 2024.48 1318 2051.26 1321.59 2078.03 1324.33 2104.84 1327.07 2131.61 1329.7 2158.38 1331.29 2185.15 1332.87 2211.92 1333.83 2238.73 1333.83 2265.5 1333.83 2292.27 1332.87 2319.05 1331.29 2345.82 1329.7 2372.59 1327.07 2399.4 1324.33 2426.17 1321.59 2466.31 1316.41 2479.71 1314.83" stroke="#FFAA79" stroke-width="27.5" stroke-linecap="round" stroke-linejoin="round" stroke-miterlimit="10" stroke-opacity="1" fill="#FBE3D6" fill-rule="evenodd" fill-opacity="1"/><text fill="#7F7F7F" fill-opacity="1" font-family="Chalkboard SE,Chalkboard SE_MSFontService,sans-serif" font-style="normal" font-variant="normal" font-weight="700" font-stretch="normal" font-size="275" text-anchor="start" direction="ltr" writing-mode="lr-tb" unicode-bidi="normal" text-decoration="none" transform="matrix(1 0 0 1 1548.79 1143)">nleis.py</text></g></g></svg>